<svg xmlns="http://www.w3.org/2000/svg" viewBox="0 0 64 64" role="img" aria-labelledby="title description">
  <title id="title">Romelt TechCare</title>
  <description id="description">Romelt TechCare shield and technology connection logo</description>
  <defs>
    <linearGradient id="background" x1="8" y1="6" x2="56" y2="58" gradientUnits="userSpaceOnUse">
      <stop offset="0" stop-color="#2563eb"/>
      <stop offset="1" stop-color="#0f3f91"/>
    </linearGradient>
    <linearGradient id="accent" x1="20" y1="18" x2="44" y2="47" gradientUnits="userSpaceOnUse">
      <stop offset="0" stop-color="#bfdbfe"/>
      <stop offset="1" stop-color="#ffffff"/>
    </linearGradient>
  </defs>
  <rect width="64" height="64" rx="16" fill="#07152e"/>
  <path d="M32 7.5 52 15v14.2c0 13.3-8.1 22.7-20 27.3C20.1 51.9 12 42.5 12 29.2V15l20-7.5Z" fill="url(#background)"/>
  <path d="M23 20.5h10.2c6.1 0 10.3 3.3 10.3 8.7 0 3.8-2.1 6.6-5.5 7.9l6.5 9.4h-7.2l-5.6-8.4H29v8.4h-6V20.5Zm6 5.3v7.1h4c2.8 0 4.4-1.2 4.4-3.6 0-2.3-1.6-3.5-4.4-3.5h-4Z" fill="url(#accent)"/>
  <circle cx="47" cy="18" r="3" fill="#60a5fa"/>
  <circle cx="50" cy="27" r="2" fill="#bfdbfe"/>
  <path d="M43 20.5 47 18m-2 8 5 1" stroke="#dbeafe" stroke-width="1.8" stroke-linecap="round"/>
</svg>
